# xmcd
#
# Track frame offsets:
#	150
#	19809
#	34367
#	49956
#	65096
#	77438
#	94088
#	107332
#	126146
#	140868
#
# Disc length: 2114 seconds
#
# Revision: 1
# Processed by: cddbd v1.5.1PL2 Copyright (c) Steve Scherf et al.
# Submitted via: audiograbber 1.83.01
#
DISCID=8908400a
DTITLE=The Crabb Family - The Early Years
DYEAR=2004
DGENRE=Southern Gospel
TTITLE0=The Crabb Family - Still Holdin' On
TTITLE1=The Hoskins Family - I Wouldn't Trade One Minute Of It
TTITLE2=The Crabb Family - Trail Of Tears
TTITLE3=Gerald Crabb - Where We'll Never Die
TTITLE4=Mike Bowling - Somebody Did Some Praying
TTITLE5=The Hoskins Family - Hope
TTITLE6=The Crabb Family - Brothers Forever
TTITLE7=Mike Bowling - Thank God For The Preacher
TTITLE8=Gerald Crabb - Something Going On In The Graveyard
TTITLE9=The Hoskins Family - What A Joyful Morning
EXTD=
EXTT0=
EXTT1=
EXTT2=
EXTT3=
EXTT4=
EXTT5=
EXTT6=
EXTT7=
EXTT8=
EXTT9=
PLAYORDER=
